<svg width="28" height="28" viewBox="0 0 28 28" fill="none" xmlns="http://www.w3.org/2000/svg">
<rect width="28" height="28" fill="#0077B5"/>
<path fill-rule="evenodd" clip-rule="evenodd" d="M10.7414 9.45042C10.7238 8.65481 10.1549 8.04883 9.23101 8.04883C8.30713 8.04883 7.70312 8.65481 7.70312 9.45042C7.70312 10.2296 8.28927 10.853 9.19595 10.853H9.21321C10.1549 10.853 10.7414 10.2296 10.7414 9.45042ZM10.56 11.9609H7.85938V20.0753H10.56V11.9609ZM17.1978 11.7715C18.9749 11.7715 20.3073 12.9315 20.3073 15.4239L20.3072 20.0764H17.6066V15.7352C17.6066 14.6448 17.2158 13.9007 16.2381 13.9007C15.492 13.9007 15.0476 14.4023 14.8524 14.8868C14.781 15.0605 14.7635 15.3024 14.7635 15.5449V20.0766H12.0625C12.0625 20.0766 12.0981 12.7237 12.0625 11.9622H14.7635V13.1116C15.1219 12.5591 15.7639 11.7715 17.1978 11.7715Z" fill="white"/>
</svg>
