<svg width="28" height="28" viewBox="0 0 28 28" fill="none" xmlns="http://www.w3.org/2000/svg">
<rect width="28" height="28" fill="#FF0000"/>
<path fill-rule="evenodd" clip-rule="evenodd" d="M20.251 8.35828C20.9394 8.55541 21.4816 9.13622 21.6656 9.8738C22 11.2107 22 14 22 14C22 14 22 16.7893 21.6656 18.1261C21.4816 18.8636 20.9394 19.4446 20.251 19.6417C19.0032 20 13.9999 20 13.9999 20C13.9999 20 8.99665 20 7.74889 19.6417C7.06048 19.4446 6.51825 18.8636 6.33426 18.1261C6 16.7893 6 14 6 14C6 14 6 11.2107 6.33426 9.8738C6.51825 9.13622 7.06048 8.55541 7.74889 8.35828C8.99665 8 13.9999 8 13.9999 8C13.9999 8 19.0032 8 20.251 8.35828ZM16.5553 13.9992L12.3984 16.5706V11.4277L16.5553 13.9992Z" fill="white"/>
</svg>
